<svg xmlns="http://www.w3.org/2000/svg" viewBox="0 0 24 24" width="512" height="512">
  <rect width="24" height="24" rx="5" fill="#2e6b3e"/>
  <g fill="none" stroke="#fff" stroke-width="1.6" stroke-linecap="round" stroke-linejoin="round"
     transform="translate(12 12) scale(0.62) translate(-12 -12)">
    <path d="M21 16V8a2 2 0 0 0-1-1.73l-7-4a2 2 0 0 0-2 0l-7 4A2 2 0 0 0 3 8v8a2 2 0 0 0 1 1.73l7 4a2 2 0 0 0 2 0l7-4A2 2 0 0 0 21 16z"/>
    <path d="M3.27 6.96 12 12.01l8.73-5.05M12 22.08V12"/>
  </g>
</svg>
